G04 EAGLE Gerber RS-274X export*
G75*
%MOMM*%
%FSLAX34Y34*%
%LPD*%
%INTop Copper*%
%IPPOS*%
%AMOC8*
5,1,8,0,0,1.08239X$1,22.5*%
G01*
%ADD10R,2.000000X4.100000*%
%ADD11R,1.570000X2.220000*%
%ADD12C,3.000000*%
%ADD13R,5.400000X2.900000*%
%ADD14R,1.300000X1.150000*%
%ADD15R,1.200000X1.200000*%
%ADD16R,1.016000X3.050000*%
%ADD17R,8.380000X10.660000*%
%ADD18C,1.016000*%

G36*
X311208Y37093D02*
X311208Y37093D01*
X311266Y37091D01*
X311348Y37113D01*
X311432Y37125D01*
X311485Y37149D01*
X311541Y37163D01*
X311614Y37206D01*
X311691Y37241D01*
X311736Y37279D01*
X311786Y37309D01*
X311844Y37370D01*
X311908Y37425D01*
X311940Y37473D01*
X311980Y37516D01*
X312019Y37591D01*
X312066Y37661D01*
X312083Y37717D01*
X312110Y37769D01*
X312121Y37837D01*
X312151Y37932D01*
X312154Y38032D01*
X312165Y38100D01*
X312165Y114300D01*
X312158Y114349D01*
X312159Y114360D01*
X312155Y114375D01*
X312153Y114387D01*
X312150Y114474D01*
X312133Y114527D01*
X312125Y114582D01*
X312090Y114661D01*
X312063Y114745D01*
X312035Y114784D01*
X312009Y114841D01*
X311913Y114954D01*
X311868Y115018D01*
X305815Y121071D01*
X305815Y121319D01*
X305811Y121350D01*
X305813Y121381D01*
X305796Y121457D01*
X305795Y121459D01*
X305796Y121467D01*
X305793Y121477D01*
X305775Y121601D01*
X305749Y121660D01*
X305738Y121708D01*
X304799Y123974D01*
X304799Y143764D01*
X304791Y143822D01*
X304793Y143880D01*
X304771Y143962D01*
X304759Y144046D01*
X304736Y144099D01*
X304721Y144155D01*
X304678Y144228D01*
X304643Y144305D01*
X304605Y144350D01*
X304576Y144400D01*
X304514Y144458D01*
X304460Y144522D01*
X304411Y144554D01*
X304368Y144594D01*
X304293Y144633D01*
X304223Y144680D01*
X304167Y144697D01*
X304115Y144724D01*
X304047Y144735D01*
X303952Y144765D01*
X303852Y144768D01*
X303784Y144779D01*
X239784Y144779D01*
X236983Y145939D01*
X236866Y146057D01*
X236155Y146768D01*
X236085Y146820D01*
X236021Y146880D01*
X235972Y146906D01*
X235928Y146939D01*
X235846Y146970D01*
X235768Y147010D01*
X235720Y147018D01*
X235662Y147040D01*
X235514Y147052D01*
X235437Y147065D01*
X209550Y147065D01*
X209463Y147053D01*
X209376Y147050D01*
X209323Y147033D01*
X209269Y147025D01*
X209189Y146990D01*
X209105Y146963D01*
X209066Y146935D01*
X209009Y146909D01*
X208896Y146813D01*
X208832Y146768D01*
X202780Y140715D01*
X82971Y140715D01*
X64218Y159468D01*
X64148Y159520D01*
X64084Y159580D01*
X64035Y159606D01*
X63991Y159639D01*
X63909Y159670D01*
X63831Y159710D01*
X63784Y159718D01*
X63725Y159740D01*
X63577Y159752D01*
X63500Y159765D01*
X12700Y159765D01*
X12642Y159757D01*
X12584Y159759D01*
X12502Y159737D01*
X12419Y159725D01*
X12365Y159702D01*
X12309Y159687D01*
X12236Y159644D01*
X12159Y159609D01*
X12114Y159571D01*
X12064Y159542D01*
X12006Y159480D01*
X11942Y159426D01*
X11910Y159377D01*
X11870Y159334D01*
X11831Y159259D01*
X11785Y159189D01*
X11767Y159133D01*
X11740Y159081D01*
X11729Y159013D01*
X11699Y158918D01*
X11696Y158818D01*
X11685Y158750D01*
X11685Y88900D01*
X11693Y88842D01*
X11691Y88784D01*
X11713Y88702D01*
X11725Y88619D01*
X11749Y88565D01*
X11763Y88509D01*
X11806Y88436D01*
X11841Y88359D01*
X11879Y88314D01*
X11909Y88264D01*
X11970Y88206D01*
X12025Y88142D01*
X12073Y88110D01*
X12116Y88070D01*
X12191Y88031D01*
X12261Y87985D01*
X12317Y87967D01*
X12369Y87940D01*
X12437Y87929D01*
X12532Y87899D01*
X12632Y87896D01*
X12700Y87885D01*
X145630Y87885D01*
X196132Y37382D01*
X196202Y37330D01*
X196266Y37270D01*
X196315Y37244D01*
X196359Y37211D01*
X196441Y37180D01*
X196519Y37140D01*
X196567Y37132D01*
X196625Y37110D01*
X196773Y37098D01*
X196850Y37085D01*
X311150Y37085D01*
X311208Y37093D01*
G37*
G36*
X596958Y87893D02*
X596958Y87893D01*
X597016Y87891D01*
X597098Y87913D01*
X597182Y87925D01*
X597235Y87949D01*
X597291Y87963D01*
X597364Y88006D01*
X597441Y88041D01*
X597486Y88079D01*
X597536Y88109D01*
X597594Y88170D01*
X597658Y88225D01*
X597690Y88273D01*
X597730Y88316D01*
X597769Y88391D01*
X597816Y88461D01*
X597833Y88517D01*
X597860Y88569D01*
X597871Y88637D01*
X597901Y88732D01*
X597904Y88832D01*
X597915Y88900D01*
X597915Y127000D01*
X597903Y127087D01*
X597900Y127174D01*
X597883Y127227D01*
X597875Y127282D01*
X597840Y127361D01*
X597813Y127445D01*
X597785Y127484D01*
X597759Y127541D01*
X597663Y127654D01*
X597618Y127718D01*
X591268Y134068D01*
X591198Y134120D01*
X591134Y134180D01*
X591085Y134206D01*
X591041Y134239D01*
X590959Y134270D01*
X590881Y134310D01*
X590834Y134318D01*
X590775Y134340D01*
X590627Y134352D01*
X590550Y134365D01*
X513849Y134365D01*
X513762Y134353D01*
X513675Y134350D01*
X513622Y134333D01*
X513567Y134325D01*
X513488Y134290D01*
X513404Y134263D01*
X513365Y134235D01*
X513308Y134209D01*
X513195Y134113D01*
X513131Y134068D01*
X513012Y133949D01*
X497908Y133949D01*
X497789Y134068D01*
X497719Y134121D01*
X497655Y134180D01*
X497606Y134206D01*
X497562Y134239D01*
X497480Y134270D01*
X497402Y134310D01*
X497355Y134318D01*
X497296Y134340D01*
X497148Y134352D01*
X497071Y134365D01*
X483021Y134365D01*
X400768Y216618D01*
X400698Y216670D01*
X400634Y216730D01*
X400585Y216756D01*
X400541Y216789D01*
X400459Y216820D01*
X400381Y216860D01*
X400334Y216868D01*
X400275Y216890D01*
X400127Y216902D01*
X400050Y216915D01*
X285750Y216915D01*
X285692Y216907D01*
X285634Y216909D01*
X285552Y216887D01*
X285469Y216875D01*
X285415Y216852D01*
X285359Y216837D01*
X285286Y216794D01*
X285209Y216759D01*
X285164Y216721D01*
X285114Y216692D01*
X285056Y216630D01*
X284992Y216576D01*
X284960Y216527D01*
X284920Y216484D01*
X284881Y216409D01*
X284835Y216339D01*
X284817Y216283D01*
X284790Y216231D01*
X284779Y216163D01*
X284749Y216068D01*
X284746Y215968D01*
X284735Y215900D01*
X284735Y171450D01*
X284743Y171392D01*
X284741Y171334D01*
X284763Y171252D01*
X284775Y171169D01*
X284799Y171115D01*
X284813Y171059D01*
X284856Y170986D01*
X284891Y170909D01*
X284929Y170864D01*
X284959Y170814D01*
X285020Y170756D01*
X285075Y170692D01*
X285123Y170660D01*
X285166Y170620D01*
X285241Y170581D01*
X285311Y170535D01*
X285367Y170517D01*
X285419Y170490D01*
X285487Y170479D01*
X285582Y170449D01*
X285682Y170446D01*
X285750Y170435D01*
X298450Y170435D01*
X298537Y170447D01*
X298624Y170450D01*
X298677Y170467D01*
X298732Y170475D01*
X298811Y170510D01*
X298895Y170537D01*
X298934Y170565D01*
X298991Y170591D01*
X299104Y170687D01*
X299168Y170732D01*
X311571Y183135D01*
X354585Y183135D01*
X354585Y133350D01*
X354597Y133263D01*
X354600Y133176D01*
X354617Y133123D01*
X354625Y133069D01*
X354660Y132989D01*
X354687Y132905D01*
X354715Y132866D01*
X354741Y132809D01*
X354837Y132696D01*
X354882Y132632D01*
X386632Y100882D01*
X386702Y100830D01*
X386766Y100770D01*
X386815Y100744D01*
X386859Y100711D01*
X386941Y100680D01*
X387019Y100640D01*
X387067Y100632D01*
X387125Y100610D01*
X387273Y100598D01*
X387350Y100585D01*
X507580Y100585D01*
X519982Y88182D01*
X520052Y88130D01*
X520116Y88070D01*
X520165Y88044D01*
X520209Y88011D01*
X520291Y87980D01*
X520369Y87940D01*
X520417Y87932D01*
X520475Y87910D01*
X520623Y87898D01*
X520700Y87885D01*
X596900Y87885D01*
X596958Y87893D01*
G37*
D10*
X125730Y204790D03*
X125730Y117790D03*
X402590Y258130D03*
X402590Y171130D03*
D11*
X275590Y238760D03*
X232390Y238760D03*
D12*
X29210Y205740D03*
X581660Y204470D03*
X26670Y278130D03*
X26670Y26670D03*
X581660Y26670D03*
X580390Y278130D03*
D13*
X403860Y34050D03*
X403860Y131050D03*
D14*
X505460Y142240D03*
X505460Y118740D03*
D15*
X505460Y167640D03*
X505460Y187640D03*
D16*
X292100Y194310D03*
X275080Y194310D03*
X258060Y194310D03*
X241040Y194310D03*
X224020Y194310D03*
D17*
X258060Y91290D03*
D12*
X29210Y118110D03*
X582930Y109220D03*
D18*
X125730Y117790D02*
X125410Y118110D01*
X125730Y117790D02*
X231560Y117790D01*
X258060Y91290D01*
X125730Y117790D02*
X29530Y117790D01*
X29210Y118110D01*
X124780Y205740D02*
X125730Y204790D01*
X402590Y253680D02*
X402590Y258130D01*
X130810Y204790D02*
X125730Y204790D01*
X275590Y194820D02*
X275590Y238760D01*
X294960Y258130D02*
X402590Y258130D01*
X294960Y258130D02*
X275590Y238760D01*
X275590Y194820D02*
X275080Y194310D01*
X258060Y194310D01*
X224020Y194310D02*
X136210Y194310D01*
X125730Y204790D01*
X200660Y217670D02*
X224020Y194310D01*
X200660Y217670D02*
X200660Y257810D01*
X203200Y260350D01*
X252730Y260350D01*
X258060Y255020D01*
X258060Y194310D01*
X434970Y258130D02*
X505460Y187640D01*
X434970Y258130D02*
X402590Y258130D01*
X125730Y204790D02*
X30160Y204790D01*
X29210Y205740D01*
X505460Y167640D02*
X544830Y167640D01*
X581660Y204470D01*
X505460Y167640D02*
X505460Y142240D01*
X505460Y118740D02*
X506090Y118110D01*
X403860Y131050D02*
X403860Y136130D01*
X514980Y109220D02*
X582930Y109220D01*
X514980Y109220D02*
X505460Y118740D01*
X466730Y118740D01*
X454420Y131050D02*
X403860Y131050D01*
X454420Y131050D02*
X466730Y118740D01*
X403860Y131050D02*
X402590Y132320D01*
X402590Y167640D01*
X402590Y171130D01*
X375920Y194310D02*
X292100Y194310D01*
X375920Y194310D02*
X402590Y167640D01*
X241040Y184400D02*
X241040Y194310D01*
X241040Y230110D02*
X232390Y238760D01*
X241040Y230110D02*
X241040Y194310D01*
X312420Y125490D02*
X403860Y34050D01*
X312420Y125490D02*
X312420Y152400D01*
X241300Y152400D01*
X241040Y152660D01*
X241040Y194310D01*
M02*
