G04 EAGLE Gerber RS-274X export*
G75*
%MOMM*%
%FSLAX34Y34*%
%LPD*%
%INSilkscreen Top*%
%IPPOS*%
%AMOC8*
5,1,8,0,0,1.08239X$1,22.5*%
G01*
%ADD10C,0.127000*%
%ADD11C,0.101600*%


D10*
X113730Y212290D02*
X72430Y212290D01*
X72430Y131290D01*
X90430Y110290D01*
X113730Y110290D01*
X137730Y212290D02*
X179030Y212290D01*
X179030Y128290D01*
X164030Y110290D01*
X137730Y110290D01*
D11*
X131581Y230448D02*
X128984Y230448D01*
X128885Y230450D01*
X128785Y230456D01*
X128686Y230465D01*
X128588Y230478D01*
X128490Y230495D01*
X128392Y230516D01*
X128296Y230541D01*
X128201Y230569D01*
X128107Y230601D01*
X128014Y230636D01*
X127922Y230675D01*
X127832Y230718D01*
X127744Y230763D01*
X127657Y230813D01*
X127573Y230865D01*
X127490Y230921D01*
X127410Y230979D01*
X127332Y231041D01*
X127257Y231106D01*
X127184Y231174D01*
X127114Y231244D01*
X127046Y231317D01*
X126981Y231392D01*
X126919Y231470D01*
X126861Y231550D01*
X126805Y231633D01*
X126753Y231717D01*
X126703Y231804D01*
X126658Y231892D01*
X126615Y231982D01*
X126576Y232074D01*
X126541Y232167D01*
X126509Y232261D01*
X126481Y232356D01*
X126456Y232452D01*
X126435Y232550D01*
X126418Y232648D01*
X126405Y232746D01*
X126396Y232845D01*
X126390Y232945D01*
X126388Y233044D01*
X126388Y239536D01*
X126390Y239635D01*
X126396Y239735D01*
X126405Y239834D01*
X126418Y239932D01*
X126435Y240030D01*
X126456Y240128D01*
X126481Y240224D01*
X126509Y240319D01*
X126541Y240413D01*
X126576Y240506D01*
X126615Y240598D01*
X126658Y240688D01*
X126703Y240776D01*
X126753Y240863D01*
X126805Y240947D01*
X126861Y241030D01*
X126919Y241110D01*
X126981Y241188D01*
X127046Y241263D01*
X127114Y241336D01*
X127184Y241406D01*
X127257Y241474D01*
X127332Y241539D01*
X127410Y241601D01*
X127490Y241659D01*
X127573Y241715D01*
X127657Y241767D01*
X127744Y241817D01*
X127832Y241862D01*
X127922Y241905D01*
X128014Y241944D01*
X128106Y241979D01*
X128201Y242011D01*
X128296Y242039D01*
X128392Y242064D01*
X128490Y242085D01*
X128588Y242102D01*
X128686Y242115D01*
X128785Y242124D01*
X128885Y242130D01*
X128984Y242132D01*
X131581Y242132D01*
X135946Y239536D02*
X139192Y242132D01*
X139192Y230448D01*
X142437Y230448D02*
X135946Y230448D01*
D10*
X349290Y265630D02*
X390590Y265630D01*
X349290Y265630D02*
X349290Y184630D01*
X367290Y163630D01*
X390590Y163630D01*
X414590Y265630D02*
X455890Y265630D01*
X455890Y181630D01*
X440890Y163630D01*
X414590Y163630D01*
D11*
X325891Y224098D02*
X323294Y224098D01*
X323195Y224100D01*
X323095Y224106D01*
X322996Y224115D01*
X322898Y224128D01*
X322800Y224145D01*
X322702Y224166D01*
X322606Y224191D01*
X322511Y224219D01*
X322417Y224251D01*
X322324Y224286D01*
X322232Y224325D01*
X322142Y224368D01*
X322054Y224413D01*
X321967Y224463D01*
X321883Y224515D01*
X321800Y224571D01*
X321720Y224629D01*
X321642Y224691D01*
X321567Y224756D01*
X321494Y224824D01*
X321424Y224894D01*
X321356Y224967D01*
X321291Y225042D01*
X321229Y225120D01*
X321171Y225200D01*
X321115Y225283D01*
X321063Y225367D01*
X321013Y225454D01*
X320968Y225542D01*
X320925Y225632D01*
X320886Y225724D01*
X320851Y225817D01*
X320819Y225911D01*
X320791Y226006D01*
X320766Y226102D01*
X320745Y226200D01*
X320728Y226298D01*
X320715Y226396D01*
X320706Y226495D01*
X320700Y226595D01*
X320698Y226694D01*
X320698Y233186D01*
X320700Y233285D01*
X320706Y233385D01*
X320715Y233484D01*
X320728Y233582D01*
X320745Y233680D01*
X320766Y233778D01*
X320791Y233874D01*
X320819Y233969D01*
X320851Y234063D01*
X320886Y234156D01*
X320925Y234248D01*
X320968Y234338D01*
X321013Y234426D01*
X321063Y234513D01*
X321115Y234597D01*
X321171Y234680D01*
X321229Y234760D01*
X321291Y234838D01*
X321356Y234913D01*
X321424Y234986D01*
X321494Y235056D01*
X321567Y235124D01*
X321642Y235189D01*
X321720Y235251D01*
X321800Y235309D01*
X321883Y235365D01*
X321967Y235417D01*
X322054Y235467D01*
X322142Y235512D01*
X322232Y235555D01*
X322324Y235594D01*
X322416Y235629D01*
X322511Y235661D01*
X322606Y235689D01*
X322702Y235714D01*
X322800Y235735D01*
X322898Y235752D01*
X322996Y235765D01*
X323095Y235774D01*
X323195Y235780D01*
X323294Y235782D01*
X325891Y235782D01*
X333826Y235782D02*
X333933Y235780D01*
X334039Y235774D01*
X334145Y235764D01*
X334251Y235751D01*
X334357Y235733D01*
X334461Y235712D01*
X334565Y235687D01*
X334668Y235658D01*
X334769Y235626D01*
X334869Y235589D01*
X334968Y235549D01*
X335066Y235506D01*
X335162Y235459D01*
X335256Y235408D01*
X335348Y235354D01*
X335438Y235297D01*
X335526Y235237D01*
X335611Y235173D01*
X335694Y235106D01*
X335775Y235036D01*
X335853Y234964D01*
X335929Y234888D01*
X336001Y234810D01*
X336071Y234729D01*
X336138Y234646D01*
X336202Y234561D01*
X336262Y234473D01*
X336319Y234383D01*
X336373Y234291D01*
X336424Y234197D01*
X336471Y234101D01*
X336514Y234003D01*
X336554Y233904D01*
X336591Y233804D01*
X336623Y233703D01*
X336652Y233600D01*
X336677Y233496D01*
X336698Y233392D01*
X336716Y233286D01*
X336729Y233180D01*
X336739Y233074D01*
X336745Y232968D01*
X336747Y232861D01*
X333826Y235782D02*
X333705Y235780D01*
X333584Y235774D01*
X333464Y235764D01*
X333343Y235751D01*
X333224Y235733D01*
X333104Y235712D01*
X332986Y235687D01*
X332869Y235658D01*
X332752Y235625D01*
X332637Y235589D01*
X332523Y235548D01*
X332410Y235505D01*
X332298Y235457D01*
X332189Y235406D01*
X332081Y235351D01*
X331974Y235293D01*
X331870Y235232D01*
X331768Y235167D01*
X331668Y235099D01*
X331570Y235028D01*
X331474Y234954D01*
X331381Y234877D01*
X331291Y234796D01*
X331203Y234713D01*
X331118Y234627D01*
X331035Y234538D01*
X330956Y234447D01*
X330879Y234353D01*
X330806Y234257D01*
X330736Y234159D01*
X330669Y234058D01*
X330605Y233955D01*
X330545Y233850D01*
X330488Y233743D01*
X330434Y233635D01*
X330384Y233525D01*
X330338Y233413D01*
X330295Y233300D01*
X330256Y233185D01*
X335774Y230589D02*
X335853Y230666D01*
X335929Y230747D01*
X336002Y230830D01*
X336072Y230915D01*
X336139Y231003D01*
X336203Y231093D01*
X336263Y231185D01*
X336320Y231280D01*
X336374Y231376D01*
X336425Y231474D01*
X336472Y231574D01*
X336516Y231676D01*
X336556Y231779D01*
X336592Y231883D01*
X336624Y231989D01*
X336653Y232095D01*
X336678Y232203D01*
X336700Y232311D01*
X336717Y232421D01*
X336731Y232530D01*
X336740Y232640D01*
X336746Y232751D01*
X336748Y232861D01*
X335774Y230589D02*
X330256Y224098D01*
X336747Y224098D01*
D10*
X285590Y225760D02*
X221590Y225760D01*
X285590Y225760D02*
X285590Y252760D01*
X221590Y252760D01*
X221590Y225760D01*
X220590Y225760D01*
X219590Y225760D01*
X217590Y225760D02*
X216590Y225760D01*
X216590Y252760D01*
X217590Y252760D02*
X219590Y252760D01*
X220590Y252760D02*
X221590Y252760D01*
X219590Y251760D02*
X219590Y225760D01*
X217590Y225760D01*
X217590Y251760D01*
X217590Y252760D01*
X216590Y252760D01*
X218590Y251760D02*
X218590Y226760D01*
X218590Y251760D02*
X217590Y251760D01*
X220590Y252760D02*
X220590Y225760D01*
X220590Y252760D02*
X219590Y252760D01*
D11*
X290180Y240302D02*
X290180Y228618D01*
X290180Y240302D02*
X293425Y240302D01*
X293538Y240300D01*
X293651Y240294D01*
X293764Y240284D01*
X293877Y240270D01*
X293989Y240253D01*
X294100Y240231D01*
X294210Y240206D01*
X294320Y240176D01*
X294428Y240143D01*
X294535Y240106D01*
X294641Y240066D01*
X294745Y240021D01*
X294848Y239973D01*
X294949Y239922D01*
X295048Y239867D01*
X295145Y239809D01*
X295240Y239747D01*
X295333Y239682D01*
X295423Y239614D01*
X295511Y239543D01*
X295597Y239468D01*
X295680Y239391D01*
X295760Y239311D01*
X295837Y239228D01*
X295912Y239142D01*
X295983Y239054D01*
X296051Y238964D01*
X296116Y238871D01*
X296178Y238776D01*
X296236Y238679D01*
X296291Y238580D01*
X296342Y238479D01*
X296390Y238376D01*
X296435Y238272D01*
X296475Y238166D01*
X296512Y238059D01*
X296545Y237951D01*
X296575Y237841D01*
X296600Y237731D01*
X296622Y237620D01*
X296639Y237508D01*
X296653Y237395D01*
X296663Y237282D01*
X296669Y237169D01*
X296671Y237056D01*
X296671Y231864D01*
X296672Y231864D02*
X296670Y231751D01*
X296664Y231638D01*
X296654Y231525D01*
X296640Y231412D01*
X296623Y231300D01*
X296601Y231189D01*
X296576Y231079D01*
X296546Y230969D01*
X296513Y230861D01*
X296476Y230754D01*
X296436Y230648D01*
X296391Y230544D01*
X296343Y230441D01*
X296292Y230340D01*
X296237Y230241D01*
X296179Y230144D01*
X296117Y230049D01*
X296052Y229956D01*
X295984Y229866D01*
X295913Y229778D01*
X295838Y229692D01*
X295761Y229609D01*
X295681Y229529D01*
X295598Y229452D01*
X295512Y229377D01*
X295424Y229306D01*
X295334Y229238D01*
X295241Y229173D01*
X295146Y229111D01*
X295049Y229053D01*
X294950Y228998D01*
X294849Y228947D01*
X294746Y228899D01*
X294642Y228854D01*
X294536Y228814D01*
X294429Y228777D01*
X294321Y228744D01*
X294211Y228714D01*
X294101Y228689D01*
X293990Y228667D01*
X293878Y228650D01*
X293765Y228636D01*
X293652Y228626D01*
X293539Y228620D01*
X293426Y228618D01*
X293425Y228618D02*
X290180Y228618D01*
X301991Y237706D02*
X305236Y240302D01*
X305236Y228618D01*
X301991Y228618D02*
X308482Y228618D01*
X23368Y233059D02*
X21421Y233059D01*
X23368Y233059D02*
X23368Y226568D01*
X19473Y226568D01*
X19374Y226570D01*
X19274Y226576D01*
X19175Y226585D01*
X19077Y226598D01*
X18979Y226615D01*
X18881Y226636D01*
X18785Y226661D01*
X18690Y226689D01*
X18596Y226721D01*
X18503Y226756D01*
X18411Y226795D01*
X18321Y226838D01*
X18233Y226883D01*
X18146Y226933D01*
X18062Y226985D01*
X17979Y227041D01*
X17899Y227099D01*
X17821Y227161D01*
X17746Y227226D01*
X17673Y227294D01*
X17603Y227364D01*
X17535Y227437D01*
X17470Y227512D01*
X17408Y227590D01*
X17350Y227670D01*
X17294Y227753D01*
X17242Y227837D01*
X17192Y227924D01*
X17147Y228012D01*
X17104Y228102D01*
X17065Y228194D01*
X17030Y228287D01*
X16998Y228381D01*
X16970Y228476D01*
X16945Y228572D01*
X16924Y228670D01*
X16907Y228768D01*
X16894Y228866D01*
X16885Y228965D01*
X16879Y229065D01*
X16877Y229164D01*
X16877Y235656D01*
X16879Y235755D01*
X16885Y235855D01*
X16894Y235954D01*
X16907Y236052D01*
X16924Y236150D01*
X16945Y236248D01*
X16970Y236344D01*
X16998Y236439D01*
X17030Y236533D01*
X17065Y236626D01*
X17104Y236718D01*
X17147Y236808D01*
X17192Y236896D01*
X17242Y236983D01*
X17294Y237067D01*
X17350Y237150D01*
X17408Y237230D01*
X17470Y237308D01*
X17535Y237383D01*
X17603Y237456D01*
X17673Y237526D01*
X17746Y237594D01*
X17821Y237659D01*
X17899Y237721D01*
X17979Y237779D01*
X18062Y237835D01*
X18146Y237887D01*
X18233Y237937D01*
X18321Y237982D01*
X18411Y238025D01*
X18503Y238064D01*
X18595Y238099D01*
X18690Y238131D01*
X18785Y238159D01*
X18881Y238184D01*
X18979Y238205D01*
X19077Y238222D01*
X19175Y238235D01*
X19274Y238244D01*
X19374Y238250D01*
X19473Y238252D01*
X23368Y238252D01*
X29069Y238252D02*
X29069Y226568D01*
X35560Y226568D02*
X29069Y238252D01*
X35560Y238252D02*
X35560Y226568D01*
X41261Y226568D02*
X41261Y238252D01*
X44506Y238252D01*
X44619Y238250D01*
X44732Y238244D01*
X44845Y238234D01*
X44958Y238220D01*
X45070Y238203D01*
X45181Y238181D01*
X45291Y238156D01*
X45401Y238126D01*
X45509Y238093D01*
X45616Y238056D01*
X45722Y238016D01*
X45826Y237971D01*
X45929Y237923D01*
X46030Y237872D01*
X46129Y237817D01*
X46226Y237759D01*
X46321Y237697D01*
X46414Y237632D01*
X46504Y237564D01*
X46592Y237493D01*
X46678Y237418D01*
X46761Y237341D01*
X46841Y237261D01*
X46918Y237178D01*
X46993Y237092D01*
X47064Y237004D01*
X47132Y236914D01*
X47197Y236821D01*
X47259Y236726D01*
X47317Y236629D01*
X47372Y236530D01*
X47423Y236429D01*
X47471Y236326D01*
X47516Y236222D01*
X47556Y236116D01*
X47593Y236009D01*
X47626Y235901D01*
X47656Y235791D01*
X47681Y235681D01*
X47703Y235570D01*
X47720Y235458D01*
X47734Y235345D01*
X47744Y235232D01*
X47750Y235119D01*
X47752Y235006D01*
X47752Y229814D01*
X47750Y229701D01*
X47744Y229588D01*
X47734Y229475D01*
X47720Y229362D01*
X47703Y229250D01*
X47681Y229139D01*
X47656Y229029D01*
X47626Y228919D01*
X47593Y228811D01*
X47556Y228704D01*
X47516Y228598D01*
X47471Y228494D01*
X47423Y228391D01*
X47372Y228290D01*
X47317Y228191D01*
X47259Y228094D01*
X47197Y227999D01*
X47132Y227906D01*
X47064Y227816D01*
X46993Y227728D01*
X46918Y227642D01*
X46841Y227559D01*
X46761Y227479D01*
X46678Y227402D01*
X46592Y227327D01*
X46504Y227256D01*
X46414Y227188D01*
X46321Y227123D01*
X46226Y227061D01*
X46129Y227003D01*
X46030Y226948D01*
X45929Y226897D01*
X45826Y226849D01*
X45722Y226804D01*
X45616Y226764D01*
X45509Y226727D01*
X45401Y226694D01*
X45291Y226664D01*
X45181Y226639D01*
X45070Y226617D01*
X44958Y226600D01*
X44845Y226586D01*
X44732Y226576D01*
X44619Y226570D01*
X44506Y226568D01*
X41261Y226568D01*
X561312Y230519D02*
X563259Y230519D01*
X563259Y224028D01*
X559364Y224028D01*
X559265Y224030D01*
X559165Y224036D01*
X559066Y224045D01*
X558968Y224058D01*
X558870Y224075D01*
X558772Y224096D01*
X558676Y224121D01*
X558581Y224149D01*
X558487Y224181D01*
X558394Y224216D01*
X558302Y224255D01*
X558212Y224298D01*
X558124Y224343D01*
X558037Y224393D01*
X557953Y224445D01*
X557870Y224501D01*
X557790Y224559D01*
X557712Y224621D01*
X557637Y224686D01*
X557564Y224754D01*
X557494Y224824D01*
X557426Y224897D01*
X557361Y224972D01*
X557299Y225050D01*
X557241Y225130D01*
X557185Y225213D01*
X557133Y225297D01*
X557083Y225384D01*
X557038Y225472D01*
X556995Y225562D01*
X556956Y225654D01*
X556921Y225747D01*
X556889Y225841D01*
X556861Y225936D01*
X556836Y226032D01*
X556815Y226130D01*
X556798Y226228D01*
X556785Y226326D01*
X556776Y226425D01*
X556770Y226525D01*
X556768Y226624D01*
X556768Y233116D01*
X556770Y233215D01*
X556776Y233315D01*
X556785Y233414D01*
X556798Y233512D01*
X556815Y233610D01*
X556836Y233708D01*
X556861Y233804D01*
X556889Y233899D01*
X556921Y233993D01*
X556956Y234086D01*
X556995Y234178D01*
X557038Y234268D01*
X557083Y234356D01*
X557133Y234443D01*
X557185Y234527D01*
X557241Y234610D01*
X557299Y234690D01*
X557361Y234768D01*
X557426Y234843D01*
X557494Y234916D01*
X557564Y234986D01*
X557637Y235054D01*
X557712Y235119D01*
X557790Y235181D01*
X557870Y235239D01*
X557953Y235295D01*
X558037Y235347D01*
X558124Y235397D01*
X558212Y235442D01*
X558302Y235485D01*
X558394Y235524D01*
X558486Y235559D01*
X558581Y235591D01*
X558676Y235619D01*
X558772Y235644D01*
X558870Y235665D01*
X558968Y235682D01*
X559066Y235695D01*
X559165Y235704D01*
X559265Y235710D01*
X559364Y235712D01*
X563259Y235712D01*
X568960Y235712D02*
X568960Y224028D01*
X575451Y224028D02*
X568960Y235712D01*
X575451Y235712D02*
X575451Y224028D01*
X581152Y224028D02*
X581152Y235712D01*
X584397Y235712D01*
X584510Y235710D01*
X584623Y235704D01*
X584736Y235694D01*
X584849Y235680D01*
X584961Y235663D01*
X585072Y235641D01*
X585182Y235616D01*
X585292Y235586D01*
X585400Y235553D01*
X585507Y235516D01*
X585613Y235476D01*
X585717Y235431D01*
X585820Y235383D01*
X585921Y235332D01*
X586020Y235277D01*
X586117Y235219D01*
X586212Y235157D01*
X586305Y235092D01*
X586395Y235024D01*
X586483Y234953D01*
X586569Y234878D01*
X586652Y234801D01*
X586732Y234721D01*
X586809Y234638D01*
X586884Y234552D01*
X586955Y234464D01*
X587023Y234374D01*
X587088Y234281D01*
X587150Y234186D01*
X587208Y234089D01*
X587263Y233990D01*
X587314Y233889D01*
X587362Y233786D01*
X587407Y233682D01*
X587447Y233576D01*
X587484Y233469D01*
X587517Y233361D01*
X587547Y233251D01*
X587572Y233141D01*
X587594Y233030D01*
X587611Y232918D01*
X587625Y232805D01*
X587635Y232692D01*
X587641Y232579D01*
X587643Y232466D01*
X587643Y227274D01*
X587644Y227274D02*
X587642Y227161D01*
X587636Y227048D01*
X587626Y226935D01*
X587612Y226822D01*
X587595Y226710D01*
X587573Y226599D01*
X587548Y226489D01*
X587518Y226379D01*
X587485Y226271D01*
X587448Y226164D01*
X587408Y226058D01*
X587363Y225954D01*
X587315Y225851D01*
X587264Y225750D01*
X587209Y225651D01*
X587151Y225554D01*
X587089Y225459D01*
X587024Y225366D01*
X586956Y225276D01*
X586885Y225188D01*
X586810Y225102D01*
X586733Y225019D01*
X586653Y224939D01*
X586570Y224862D01*
X586484Y224787D01*
X586396Y224716D01*
X586306Y224648D01*
X586213Y224583D01*
X586118Y224521D01*
X586021Y224463D01*
X585922Y224408D01*
X585821Y224357D01*
X585718Y224309D01*
X585614Y224264D01*
X585508Y224224D01*
X585401Y224187D01*
X585293Y224154D01*
X585183Y224124D01*
X585073Y224099D01*
X584962Y224077D01*
X584850Y224060D01*
X584737Y224046D01*
X584624Y224036D01*
X584511Y224030D01*
X584398Y224028D01*
X584397Y224028D02*
X581152Y224028D01*
X592963Y233116D02*
X596208Y235712D01*
X596208Y224028D01*
X592963Y224028D02*
X599454Y224028D01*
X52578Y278638D02*
X52578Y290322D01*
X52578Y285129D02*
X59069Y285129D01*
X59069Y290322D02*
X59069Y278638D01*
X64389Y287726D02*
X67635Y290322D01*
X67635Y278638D01*
X70880Y278638D02*
X64389Y278638D01*
X14478Y64262D02*
X14478Y52578D01*
X14478Y59069D02*
X20969Y59069D01*
X20969Y64262D02*
X20969Y52578D01*
X29859Y64262D02*
X29966Y64260D01*
X30072Y64254D01*
X30178Y64244D01*
X30284Y64231D01*
X30390Y64213D01*
X30494Y64192D01*
X30598Y64167D01*
X30701Y64138D01*
X30802Y64106D01*
X30902Y64069D01*
X31001Y64029D01*
X31099Y63986D01*
X31195Y63939D01*
X31289Y63888D01*
X31381Y63834D01*
X31471Y63777D01*
X31559Y63717D01*
X31644Y63653D01*
X31727Y63586D01*
X31808Y63516D01*
X31886Y63444D01*
X31962Y63368D01*
X32034Y63290D01*
X32104Y63209D01*
X32171Y63126D01*
X32235Y63041D01*
X32295Y62953D01*
X32352Y62863D01*
X32406Y62771D01*
X32457Y62677D01*
X32504Y62581D01*
X32547Y62483D01*
X32587Y62384D01*
X32624Y62284D01*
X32656Y62183D01*
X32685Y62080D01*
X32710Y61976D01*
X32731Y61872D01*
X32749Y61766D01*
X32762Y61660D01*
X32772Y61554D01*
X32778Y61448D01*
X32780Y61341D01*
X29859Y64262D02*
X29738Y64260D01*
X29617Y64254D01*
X29497Y64244D01*
X29376Y64231D01*
X29257Y64213D01*
X29137Y64192D01*
X29019Y64167D01*
X28902Y64138D01*
X28785Y64105D01*
X28670Y64069D01*
X28556Y64028D01*
X28443Y63985D01*
X28331Y63937D01*
X28222Y63886D01*
X28114Y63831D01*
X28007Y63773D01*
X27903Y63712D01*
X27801Y63647D01*
X27701Y63579D01*
X27603Y63508D01*
X27507Y63434D01*
X27414Y63357D01*
X27324Y63276D01*
X27236Y63193D01*
X27151Y63107D01*
X27068Y63018D01*
X26989Y62927D01*
X26912Y62833D01*
X26839Y62737D01*
X26769Y62639D01*
X26702Y62538D01*
X26638Y62435D01*
X26578Y62330D01*
X26521Y62223D01*
X26467Y62115D01*
X26417Y62005D01*
X26371Y61893D01*
X26328Y61780D01*
X26289Y61665D01*
X31807Y59069D02*
X31886Y59146D01*
X31962Y59227D01*
X32035Y59310D01*
X32105Y59395D01*
X32172Y59483D01*
X32236Y59573D01*
X32296Y59665D01*
X32353Y59760D01*
X32407Y59856D01*
X32458Y59954D01*
X32505Y60054D01*
X32549Y60156D01*
X32589Y60259D01*
X32625Y60363D01*
X32657Y60469D01*
X32686Y60575D01*
X32711Y60683D01*
X32733Y60791D01*
X32750Y60901D01*
X32764Y61010D01*
X32773Y61120D01*
X32779Y61231D01*
X32781Y61341D01*
X31806Y59069D02*
X26289Y52578D01*
X32780Y52578D01*
X569468Y52578D02*
X569468Y64262D01*
X569468Y59069D02*
X575959Y59069D01*
X575959Y64262D02*
X575959Y52578D01*
X581279Y52578D02*
X584525Y52578D01*
X584638Y52580D01*
X584751Y52586D01*
X584864Y52596D01*
X584977Y52610D01*
X585089Y52627D01*
X585200Y52649D01*
X585310Y52674D01*
X585420Y52704D01*
X585528Y52737D01*
X585635Y52774D01*
X585741Y52814D01*
X585845Y52859D01*
X585948Y52907D01*
X586049Y52958D01*
X586148Y53013D01*
X586245Y53071D01*
X586340Y53133D01*
X586433Y53198D01*
X586523Y53266D01*
X586611Y53337D01*
X586697Y53412D01*
X586780Y53489D01*
X586860Y53569D01*
X586937Y53652D01*
X587012Y53738D01*
X587083Y53826D01*
X587151Y53916D01*
X587216Y54009D01*
X587278Y54104D01*
X587336Y54201D01*
X587391Y54300D01*
X587442Y54401D01*
X587490Y54504D01*
X587535Y54608D01*
X587575Y54714D01*
X587612Y54821D01*
X587645Y54929D01*
X587675Y55039D01*
X587700Y55149D01*
X587722Y55260D01*
X587739Y55372D01*
X587753Y55485D01*
X587763Y55598D01*
X587769Y55711D01*
X587771Y55824D01*
X587769Y55937D01*
X587763Y56050D01*
X587753Y56163D01*
X587739Y56276D01*
X587722Y56388D01*
X587700Y56499D01*
X587675Y56609D01*
X587645Y56719D01*
X587612Y56827D01*
X587575Y56934D01*
X587535Y57040D01*
X587490Y57144D01*
X587442Y57247D01*
X587391Y57348D01*
X587336Y57447D01*
X587278Y57544D01*
X587216Y57639D01*
X587151Y57732D01*
X587083Y57822D01*
X587012Y57910D01*
X586937Y57996D01*
X586860Y58079D01*
X586780Y58159D01*
X586697Y58236D01*
X586611Y58311D01*
X586523Y58382D01*
X586433Y58450D01*
X586340Y58515D01*
X586245Y58577D01*
X586148Y58635D01*
X586049Y58690D01*
X585948Y58741D01*
X585845Y58789D01*
X585741Y58834D01*
X585635Y58874D01*
X585528Y58911D01*
X585420Y58944D01*
X585310Y58974D01*
X585200Y58999D01*
X585089Y59021D01*
X584977Y59038D01*
X584864Y59052D01*
X584751Y59062D01*
X584638Y59068D01*
X584525Y59070D01*
X585174Y64262D02*
X581279Y64262D01*
X585174Y64262D02*
X585275Y64260D01*
X585375Y64254D01*
X585475Y64244D01*
X585575Y64231D01*
X585674Y64213D01*
X585773Y64192D01*
X585870Y64167D01*
X585967Y64138D01*
X586062Y64105D01*
X586156Y64069D01*
X586248Y64029D01*
X586339Y63986D01*
X586428Y63939D01*
X586515Y63889D01*
X586601Y63835D01*
X586684Y63778D01*
X586764Y63718D01*
X586843Y63655D01*
X586919Y63588D01*
X586992Y63519D01*
X587062Y63447D01*
X587130Y63373D01*
X587195Y63296D01*
X587256Y63216D01*
X587315Y63134D01*
X587370Y63050D01*
X587422Y62964D01*
X587471Y62876D01*
X587516Y62786D01*
X587558Y62694D01*
X587596Y62601D01*
X587630Y62506D01*
X587661Y62411D01*
X587688Y62314D01*
X587711Y62216D01*
X587731Y62117D01*
X587746Y62017D01*
X587758Y61917D01*
X587766Y61817D01*
X587770Y61716D01*
X587770Y61616D01*
X587766Y61515D01*
X587758Y61415D01*
X587746Y61315D01*
X587731Y61215D01*
X587711Y61116D01*
X587688Y61018D01*
X587661Y60921D01*
X587630Y60826D01*
X587596Y60731D01*
X587558Y60638D01*
X587516Y60546D01*
X587471Y60456D01*
X587422Y60368D01*
X587370Y60282D01*
X587315Y60198D01*
X587256Y60116D01*
X587195Y60036D01*
X587130Y59959D01*
X587062Y59885D01*
X586992Y59813D01*
X586919Y59744D01*
X586843Y59677D01*
X586764Y59614D01*
X586684Y59554D01*
X586601Y59497D01*
X586515Y59443D01*
X586428Y59393D01*
X586339Y59346D01*
X586248Y59303D01*
X586156Y59263D01*
X586062Y59227D01*
X585967Y59194D01*
X585870Y59165D01*
X585773Y59140D01*
X585674Y59119D01*
X585575Y59101D01*
X585475Y59088D01*
X585375Y59078D01*
X585275Y59072D01*
X585174Y59070D01*
X585174Y59069D02*
X582577Y59069D01*
X542798Y278638D02*
X542798Y290322D01*
X542798Y285129D02*
X549289Y285129D01*
X549289Y290322D02*
X549289Y278638D01*
X554609Y281234D02*
X557205Y290322D01*
X554609Y281234D02*
X561100Y281234D01*
X559153Y283831D02*
X559153Y278638D01*
D10*
X513460Y111240D02*
X497460Y111240D01*
X497460Y149240D01*
X513460Y149240D01*
X513460Y111240D01*
D11*
X506668Y102932D02*
X506668Y91248D01*
X506668Y102932D02*
X509914Y102932D01*
X510027Y102930D01*
X510140Y102924D01*
X510253Y102914D01*
X510366Y102900D01*
X510478Y102883D01*
X510589Y102861D01*
X510699Y102836D01*
X510809Y102806D01*
X510917Y102773D01*
X511024Y102736D01*
X511130Y102696D01*
X511234Y102651D01*
X511337Y102603D01*
X511438Y102552D01*
X511537Y102497D01*
X511634Y102439D01*
X511729Y102377D01*
X511822Y102312D01*
X511912Y102244D01*
X512000Y102173D01*
X512086Y102098D01*
X512169Y102021D01*
X512249Y101941D01*
X512326Y101858D01*
X512401Y101772D01*
X512472Y101684D01*
X512540Y101594D01*
X512605Y101501D01*
X512667Y101406D01*
X512725Y101309D01*
X512780Y101210D01*
X512831Y101109D01*
X512879Y101006D01*
X512924Y100902D01*
X512964Y100796D01*
X513001Y100689D01*
X513034Y100581D01*
X513064Y100471D01*
X513089Y100361D01*
X513111Y100250D01*
X513128Y100138D01*
X513142Y100025D01*
X513152Y99912D01*
X513158Y99799D01*
X513160Y99686D01*
X513158Y99573D01*
X513152Y99460D01*
X513142Y99347D01*
X513128Y99234D01*
X513111Y99122D01*
X513089Y99011D01*
X513064Y98901D01*
X513034Y98791D01*
X513001Y98683D01*
X512964Y98576D01*
X512924Y98470D01*
X512879Y98366D01*
X512831Y98263D01*
X512780Y98162D01*
X512725Y98063D01*
X512667Y97966D01*
X512605Y97871D01*
X512540Y97778D01*
X512472Y97688D01*
X512401Y97600D01*
X512326Y97514D01*
X512249Y97431D01*
X512169Y97351D01*
X512086Y97274D01*
X512000Y97199D01*
X511912Y97128D01*
X511822Y97060D01*
X511729Y96995D01*
X511634Y96933D01*
X511537Y96875D01*
X511438Y96820D01*
X511337Y96769D01*
X511234Y96721D01*
X511130Y96676D01*
X511024Y96636D01*
X510917Y96599D01*
X510809Y96566D01*
X510699Y96536D01*
X510589Y96511D01*
X510478Y96489D01*
X510366Y96472D01*
X510253Y96458D01*
X510140Y96448D01*
X510027Y96442D01*
X509914Y96440D01*
X509914Y96441D02*
X506668Y96441D01*
X510563Y96441D02*
X513159Y91248D01*
X518024Y100336D02*
X521270Y102932D01*
X521270Y91248D01*
X524515Y91248D02*
X518024Y91248D01*
D10*
X497160Y160040D02*
X497160Y196040D01*
X513160Y196040D01*
X513160Y160040D01*
X497160Y160040D01*
X497160Y163040D02*
X497160Y199040D01*
X513160Y199040D01*
X513160Y163040D01*
X512860Y197040D02*
X497860Y197040D01*
X497860Y198040D02*
X512860Y198040D01*
D11*
X487106Y155548D02*
X478668Y155548D01*
X487106Y155548D02*
X487219Y155550D01*
X487332Y155556D01*
X487445Y155566D01*
X487558Y155580D01*
X487670Y155597D01*
X487781Y155619D01*
X487891Y155644D01*
X488001Y155674D01*
X488109Y155707D01*
X488216Y155744D01*
X488322Y155784D01*
X488426Y155829D01*
X488529Y155877D01*
X488630Y155928D01*
X488729Y155983D01*
X488826Y156041D01*
X488921Y156103D01*
X489014Y156168D01*
X489104Y156236D01*
X489192Y156307D01*
X489278Y156382D01*
X489361Y156459D01*
X489441Y156539D01*
X489518Y156622D01*
X489593Y156708D01*
X489664Y156796D01*
X489732Y156886D01*
X489797Y156979D01*
X489859Y157074D01*
X489917Y157171D01*
X489972Y157270D01*
X490023Y157371D01*
X490071Y157474D01*
X490116Y157578D01*
X490156Y157684D01*
X490193Y157791D01*
X490226Y157899D01*
X490256Y158009D01*
X490281Y158119D01*
X490303Y158230D01*
X490320Y158342D01*
X490334Y158455D01*
X490344Y158568D01*
X490350Y158681D01*
X490352Y158794D01*
X490350Y158907D01*
X490344Y159020D01*
X490334Y159133D01*
X490320Y159246D01*
X490303Y159358D01*
X490281Y159469D01*
X490256Y159579D01*
X490226Y159689D01*
X490193Y159797D01*
X490156Y159904D01*
X490116Y160010D01*
X490071Y160114D01*
X490023Y160217D01*
X489972Y160318D01*
X489917Y160417D01*
X489859Y160514D01*
X489797Y160609D01*
X489732Y160702D01*
X489664Y160792D01*
X489593Y160880D01*
X489518Y160966D01*
X489441Y161049D01*
X489361Y161129D01*
X489278Y161206D01*
X489192Y161281D01*
X489104Y161352D01*
X489014Y161420D01*
X488921Y161485D01*
X488826Y161547D01*
X488729Y161605D01*
X488630Y161660D01*
X488529Y161711D01*
X488426Y161759D01*
X488322Y161804D01*
X488216Y161844D01*
X488109Y161881D01*
X488001Y161914D01*
X487891Y161944D01*
X487781Y161969D01*
X487670Y161991D01*
X487558Y162008D01*
X487445Y162022D01*
X487332Y162032D01*
X487219Y162038D01*
X487106Y162040D01*
X487106Y162039D02*
X478668Y162039D01*
X478668Y169843D02*
X490352Y169843D01*
X484510Y169843D02*
X483536Y168220D01*
X483537Y168219D02*
X483490Y168146D01*
X483441Y168075D01*
X483388Y168006D01*
X483332Y167939D01*
X483273Y167875D01*
X483212Y167813D01*
X483148Y167755D01*
X483081Y167699D01*
X483012Y167647D01*
X482940Y167597D01*
X482866Y167551D01*
X482791Y167508D01*
X482713Y167469D01*
X482634Y167433D01*
X482553Y167401D01*
X482471Y167372D01*
X482388Y167347D01*
X482304Y167326D01*
X482219Y167309D01*
X482133Y167295D01*
X482047Y167286D01*
X481960Y167280D01*
X481873Y167278D01*
X481786Y167280D01*
X481699Y167286D01*
X481613Y167296D01*
X481527Y167309D01*
X481442Y167327D01*
X481358Y167348D01*
X481275Y167373D01*
X481192Y167402D01*
X481112Y167434D01*
X481033Y167470D01*
X480955Y167509D01*
X480880Y167552D01*
X480806Y167599D01*
X480735Y167648D01*
X480665Y167701D01*
X480599Y167756D01*
X480535Y167815D01*
X480473Y167876D01*
X480414Y167940D01*
X480359Y168007D01*
X480306Y168076D01*
X480256Y168148D01*
X480210Y168221D01*
X480167Y168297D01*
X480128Y168374D01*
X480092Y168453D01*
X480059Y168534D01*
X480031Y168616D01*
X480005Y168699D01*
X479984Y168783D01*
X479967Y168868D01*
X479966Y168869D02*
X479942Y169009D01*
X479922Y169151D01*
X479906Y169292D01*
X479895Y169434D01*
X479887Y169577D01*
X479883Y169719D01*
X479882Y169862D01*
X479886Y170005D01*
X479894Y170147D01*
X479906Y170289D01*
X479922Y170431D01*
X479941Y170572D01*
X479965Y170713D01*
X479992Y170853D01*
X480024Y170992D01*
X480059Y171130D01*
X480098Y171268D01*
X480141Y171404D01*
X480187Y171538D01*
X480238Y171672D01*
X480291Y171804D01*
X480349Y171934D01*
X480410Y172063D01*
X480475Y172190D01*
X480543Y172316D01*
X480615Y172439D01*
X484510Y169843D02*
X485484Y171465D01*
X485483Y171466D02*
X485530Y171539D01*
X485579Y171610D01*
X485632Y171680D01*
X485688Y171746D01*
X485747Y171810D01*
X485808Y171872D01*
X485872Y171930D01*
X485939Y171986D01*
X486008Y172038D01*
X486080Y172088D01*
X486154Y172134D01*
X486229Y172177D01*
X486307Y172216D01*
X486386Y172252D01*
X486467Y172284D01*
X486549Y172313D01*
X486632Y172338D01*
X486716Y172359D01*
X486801Y172376D01*
X486887Y172390D01*
X486974Y172399D01*
X487060Y172405D01*
X487147Y172407D01*
X487234Y172405D01*
X487321Y172399D01*
X487407Y172389D01*
X487493Y172376D01*
X487578Y172358D01*
X487662Y172337D01*
X487745Y172312D01*
X487828Y172283D01*
X487908Y172251D01*
X487987Y172215D01*
X488065Y172176D01*
X488140Y172133D01*
X488214Y172086D01*
X488285Y172037D01*
X488355Y171984D01*
X488421Y171929D01*
X488485Y171870D01*
X488547Y171809D01*
X488606Y171744D01*
X488661Y171678D01*
X488714Y171609D01*
X488764Y171537D01*
X488810Y171464D01*
X488853Y171388D01*
X488892Y171311D01*
X488928Y171232D01*
X488961Y171151D01*
X488989Y171069D01*
X489015Y170986D01*
X489036Y170902D01*
X489053Y170816D01*
X489054Y170816D02*
X489078Y170676D01*
X489098Y170534D01*
X489114Y170393D01*
X489125Y170251D01*
X489133Y170108D01*
X489137Y169966D01*
X489138Y169823D01*
X489134Y169680D01*
X489126Y169538D01*
X489114Y169396D01*
X489098Y169254D01*
X489079Y169113D01*
X489055Y168972D01*
X489028Y168832D01*
X488996Y168693D01*
X488961Y168555D01*
X488922Y168417D01*
X488879Y168281D01*
X488833Y168147D01*
X488782Y168013D01*
X488729Y167881D01*
X488671Y167751D01*
X488610Y167622D01*
X488545Y167495D01*
X488477Y167369D01*
X488405Y167246D01*
X481264Y177265D02*
X478668Y180511D01*
X490352Y180511D01*
X490352Y183756D02*
X490352Y177265D01*
X481264Y188695D02*
X478668Y191940D01*
X490352Y191940D01*
X490352Y188695D02*
X490352Y195186D01*
D10*
X327100Y34310D02*
X192100Y34310D01*
X192100Y214310D01*
X327100Y214310D01*
X327100Y34310D01*
D11*
X272240Y32602D02*
X272240Y24164D01*
X272239Y24164D02*
X272241Y24051D01*
X272247Y23938D01*
X272257Y23825D01*
X272271Y23712D01*
X272288Y23600D01*
X272310Y23489D01*
X272335Y23379D01*
X272365Y23269D01*
X272398Y23161D01*
X272435Y23054D01*
X272475Y22948D01*
X272520Y22844D01*
X272568Y22741D01*
X272619Y22640D01*
X272674Y22541D01*
X272732Y22444D01*
X272794Y22349D01*
X272859Y22256D01*
X272927Y22166D01*
X272998Y22078D01*
X273073Y21992D01*
X273150Y21909D01*
X273230Y21829D01*
X273313Y21752D01*
X273399Y21677D01*
X273487Y21606D01*
X273577Y21538D01*
X273670Y21473D01*
X273765Y21411D01*
X273862Y21353D01*
X273961Y21298D01*
X274062Y21247D01*
X274165Y21199D01*
X274269Y21154D01*
X274375Y21114D01*
X274482Y21077D01*
X274590Y21044D01*
X274700Y21014D01*
X274810Y20989D01*
X274921Y20967D01*
X275033Y20950D01*
X275146Y20936D01*
X275259Y20926D01*
X275372Y20920D01*
X275485Y20918D01*
X275598Y20920D01*
X275711Y20926D01*
X275824Y20936D01*
X275937Y20950D01*
X276049Y20967D01*
X276160Y20989D01*
X276270Y21014D01*
X276380Y21044D01*
X276488Y21077D01*
X276595Y21114D01*
X276701Y21154D01*
X276805Y21199D01*
X276908Y21247D01*
X277009Y21298D01*
X277108Y21353D01*
X277205Y21411D01*
X277300Y21473D01*
X277393Y21538D01*
X277483Y21606D01*
X277571Y21677D01*
X277657Y21752D01*
X277740Y21829D01*
X277820Y21909D01*
X277897Y21992D01*
X277972Y22078D01*
X278043Y22166D01*
X278111Y22256D01*
X278176Y22349D01*
X278238Y22444D01*
X278296Y22541D01*
X278351Y22640D01*
X278402Y22741D01*
X278450Y22844D01*
X278495Y22948D01*
X278535Y23054D01*
X278572Y23161D01*
X278605Y23269D01*
X278635Y23379D01*
X278660Y23489D01*
X278682Y23600D01*
X278699Y23712D01*
X278713Y23825D01*
X278723Y23938D01*
X278729Y24051D01*
X278731Y24164D01*
X278731Y32602D01*
X284051Y30006D02*
X287296Y32602D01*
X287296Y20918D01*
X284051Y20918D02*
X290542Y20918D01*
X20913Y144018D02*
X17018Y155702D01*
X24807Y155702D02*
X20913Y144018D01*
X30057Y144018D02*
X30057Y155702D01*
X28758Y144018D02*
X31355Y144018D01*
X31355Y155702D02*
X28758Y155702D01*
X36336Y155702D02*
X36336Y144018D01*
X42827Y144018D02*
X36336Y155702D01*
X42827Y155702D02*
X42827Y144018D01*
X554228Y159512D02*
X558123Y147828D01*
X562017Y159512D01*
X566307Y156266D02*
X566307Y151074D01*
X566307Y156266D02*
X566309Y156379D01*
X566315Y156492D01*
X566325Y156605D01*
X566339Y156718D01*
X566356Y156830D01*
X566378Y156941D01*
X566403Y157051D01*
X566433Y157161D01*
X566466Y157269D01*
X566503Y157376D01*
X566543Y157482D01*
X566588Y157586D01*
X566636Y157689D01*
X566687Y157790D01*
X566742Y157889D01*
X566800Y157986D01*
X566862Y158081D01*
X566927Y158174D01*
X566995Y158264D01*
X567066Y158352D01*
X567141Y158438D01*
X567218Y158521D01*
X567298Y158601D01*
X567381Y158678D01*
X567467Y158753D01*
X567555Y158824D01*
X567645Y158892D01*
X567738Y158957D01*
X567833Y159019D01*
X567930Y159077D01*
X568029Y159132D01*
X568130Y159183D01*
X568233Y159231D01*
X568337Y159276D01*
X568443Y159316D01*
X568550Y159353D01*
X568658Y159386D01*
X568768Y159416D01*
X568878Y159441D01*
X568989Y159463D01*
X569101Y159480D01*
X569214Y159494D01*
X569327Y159504D01*
X569440Y159510D01*
X569553Y159512D01*
X569666Y159510D01*
X569779Y159504D01*
X569892Y159494D01*
X570005Y159480D01*
X570117Y159463D01*
X570228Y159441D01*
X570338Y159416D01*
X570448Y159386D01*
X570556Y159353D01*
X570663Y159316D01*
X570769Y159276D01*
X570873Y159231D01*
X570976Y159183D01*
X571077Y159132D01*
X571176Y159077D01*
X571273Y159019D01*
X571368Y158957D01*
X571461Y158892D01*
X571551Y158824D01*
X571639Y158753D01*
X571725Y158678D01*
X571808Y158601D01*
X571888Y158521D01*
X571965Y158438D01*
X572040Y158352D01*
X572111Y158264D01*
X572179Y158174D01*
X572244Y158081D01*
X572306Y157986D01*
X572364Y157889D01*
X572419Y157790D01*
X572470Y157689D01*
X572518Y157586D01*
X572563Y157482D01*
X572603Y157376D01*
X572640Y157269D01*
X572673Y157161D01*
X572703Y157051D01*
X572728Y156941D01*
X572750Y156830D01*
X572767Y156718D01*
X572781Y156605D01*
X572791Y156492D01*
X572797Y156379D01*
X572799Y156266D01*
X572798Y156266D02*
X572798Y151074D01*
X572799Y151074D02*
X572797Y150961D01*
X572791Y150848D01*
X572781Y150735D01*
X572767Y150622D01*
X572750Y150510D01*
X572728Y150399D01*
X572703Y150289D01*
X572673Y150179D01*
X572640Y150071D01*
X572603Y149964D01*
X572563Y149858D01*
X572518Y149754D01*
X572470Y149651D01*
X572419Y149550D01*
X572364Y149451D01*
X572306Y149354D01*
X572244Y149259D01*
X572179Y149166D01*
X572111Y149076D01*
X572040Y148988D01*
X571965Y148902D01*
X571888Y148819D01*
X571808Y148739D01*
X571725Y148662D01*
X571639Y148587D01*
X571551Y148516D01*
X571461Y148448D01*
X571368Y148383D01*
X571273Y148321D01*
X571176Y148263D01*
X571077Y148208D01*
X570976Y148157D01*
X570873Y148109D01*
X570769Y148064D01*
X570663Y148024D01*
X570556Y147987D01*
X570448Y147954D01*
X570338Y147924D01*
X570228Y147899D01*
X570117Y147877D01*
X570005Y147860D01*
X569892Y147846D01*
X569779Y147836D01*
X569666Y147830D01*
X569553Y147828D01*
X569440Y147830D01*
X569327Y147836D01*
X569214Y147846D01*
X569101Y147860D01*
X568989Y147877D01*
X568878Y147899D01*
X568768Y147924D01*
X568658Y147954D01*
X568550Y147987D01*
X568443Y148024D01*
X568337Y148064D01*
X568233Y148109D01*
X568130Y148157D01*
X568029Y148208D01*
X567930Y148263D01*
X567833Y148321D01*
X567738Y148383D01*
X567645Y148448D01*
X567555Y148516D01*
X567467Y148587D01*
X567381Y148662D01*
X567298Y148739D01*
X567218Y148819D01*
X567141Y148902D01*
X567066Y148988D01*
X566995Y149076D01*
X566927Y149166D01*
X566862Y149259D01*
X566800Y149354D01*
X566742Y149451D01*
X566687Y149550D01*
X566636Y149651D01*
X566588Y149754D01*
X566543Y149858D01*
X566503Y149964D01*
X566466Y150071D01*
X566433Y150179D01*
X566403Y150289D01*
X566378Y150399D01*
X566356Y150510D01*
X566339Y150622D01*
X566325Y150735D01*
X566315Y150848D01*
X566309Y150961D01*
X566307Y151074D01*
X578118Y151074D02*
X578118Y159512D01*
X578118Y151074D02*
X578120Y150961D01*
X578126Y150848D01*
X578136Y150735D01*
X578150Y150622D01*
X578167Y150510D01*
X578189Y150399D01*
X578214Y150289D01*
X578244Y150179D01*
X578277Y150071D01*
X578314Y149964D01*
X578354Y149858D01*
X578399Y149754D01*
X578447Y149651D01*
X578498Y149550D01*
X578553Y149451D01*
X578611Y149354D01*
X578673Y149259D01*
X578738Y149166D01*
X578806Y149076D01*
X578877Y148988D01*
X578952Y148902D01*
X579029Y148819D01*
X579109Y148739D01*
X579192Y148662D01*
X579278Y148587D01*
X579366Y148516D01*
X579456Y148448D01*
X579549Y148383D01*
X579644Y148321D01*
X579741Y148263D01*
X579840Y148208D01*
X579941Y148157D01*
X580044Y148109D01*
X580148Y148064D01*
X580254Y148024D01*
X580361Y147987D01*
X580469Y147954D01*
X580579Y147924D01*
X580689Y147899D01*
X580800Y147877D01*
X580912Y147860D01*
X581025Y147846D01*
X581138Y147836D01*
X581251Y147830D01*
X581364Y147828D01*
X581477Y147830D01*
X581590Y147836D01*
X581703Y147846D01*
X581816Y147860D01*
X581928Y147877D01*
X582039Y147899D01*
X582149Y147924D01*
X582259Y147954D01*
X582367Y147987D01*
X582474Y148024D01*
X582580Y148064D01*
X582684Y148109D01*
X582787Y148157D01*
X582888Y148208D01*
X582987Y148263D01*
X583084Y148321D01*
X583179Y148383D01*
X583272Y148448D01*
X583362Y148516D01*
X583450Y148587D01*
X583536Y148662D01*
X583619Y148739D01*
X583699Y148819D01*
X583776Y148902D01*
X583851Y148988D01*
X583922Y149076D01*
X583990Y149166D01*
X584055Y149259D01*
X584117Y149354D01*
X584175Y149451D01*
X584230Y149550D01*
X584281Y149651D01*
X584329Y149754D01*
X584374Y149858D01*
X584414Y149964D01*
X584451Y150071D01*
X584484Y150179D01*
X584514Y150289D01*
X584539Y150399D01*
X584561Y150510D01*
X584578Y150622D01*
X584592Y150735D01*
X584602Y150848D01*
X584608Y150961D01*
X584610Y151074D01*
X584609Y151074D02*
X584609Y159512D01*
X592413Y159512D02*
X592413Y147828D01*
X589167Y159512D02*
X595658Y159512D01*
M02*
