G04 EAGLE Gerber RS-274X export*
G75*
%MOMM*%
%FSLAX34Y34*%
%LPD*%
%INBottom Copper*%
%IPPOS*%
%AMOC8*
5,1,8,0,0,1.08239X$1,22.5*%
G01*
%ADD10C,3.000000*%

G36*
X597720Y10931D02*
X597720Y10931D01*
X597778Y10929D01*
X597860Y10951D01*
X597944Y10963D01*
X597997Y10986D01*
X598053Y11001D01*
X598126Y11044D01*
X598203Y11079D01*
X598248Y11117D01*
X598298Y11146D01*
X598356Y11208D01*
X598420Y11262D01*
X598452Y11311D01*
X598492Y11354D01*
X598531Y11429D01*
X598578Y11499D01*
X598595Y11555D01*
X598622Y11607D01*
X598633Y11675D01*
X598663Y11770D01*
X598666Y11870D01*
X598677Y11938D01*
X598677Y97710D01*
X598673Y97739D01*
X598676Y97768D01*
X598653Y97879D01*
X598637Y97991D01*
X598625Y98018D01*
X598620Y98047D01*
X598568Y98147D01*
X598521Y98251D01*
X598502Y98273D01*
X598489Y98299D01*
X598411Y98381D01*
X598338Y98468D01*
X598313Y98484D01*
X598293Y98505D01*
X598195Y98563D01*
X598101Y98625D01*
X598073Y98634D01*
X598048Y98649D01*
X597938Y98677D01*
X597830Y98711D01*
X597800Y98712D01*
X597772Y98719D01*
X597659Y98716D01*
X597546Y98718D01*
X597517Y98711D01*
X597488Y98710D01*
X597380Y98675D01*
X597271Y98647D01*
X597245Y98632D01*
X597217Y98623D01*
X597154Y98577D01*
X597026Y98501D01*
X596983Y98456D01*
X596944Y98428D01*
X592866Y94350D01*
X586419Y91679D01*
X579441Y91679D01*
X572994Y94350D01*
X568060Y99284D01*
X565389Y105731D01*
X565389Y112709D01*
X568060Y119156D01*
X572994Y124090D01*
X579441Y126761D01*
X586419Y126761D01*
X592866Y124090D01*
X596944Y120012D01*
X596968Y119995D01*
X596987Y119972D01*
X597081Y119909D01*
X597171Y119841D01*
X597199Y119831D01*
X597223Y119815D01*
X597331Y119780D01*
X597437Y119740D01*
X597466Y119738D01*
X597494Y119729D01*
X597608Y119726D01*
X597720Y119717D01*
X597749Y119722D01*
X597778Y119722D01*
X597888Y119750D01*
X597999Y119772D01*
X598025Y119786D01*
X598053Y119793D01*
X598151Y119851D01*
X598251Y119903D01*
X598273Y119924D01*
X598298Y119939D01*
X598375Y120021D01*
X598457Y120099D01*
X598472Y120125D01*
X598492Y120146D01*
X598544Y120247D01*
X598601Y120344D01*
X598608Y120373D01*
X598622Y120399D01*
X598635Y120476D01*
X598671Y120620D01*
X598669Y120682D01*
X598677Y120730D01*
X598677Y194613D01*
X598665Y194698D01*
X598663Y194784D01*
X598645Y194838D01*
X598637Y194895D01*
X598602Y194973D01*
X598576Y195055D01*
X598544Y195102D01*
X598521Y195154D01*
X598466Y195220D01*
X598418Y195291D01*
X598374Y195328D01*
X598338Y195371D01*
X598266Y195419D01*
X598200Y195474D01*
X598148Y195497D01*
X598101Y195529D01*
X598019Y195555D01*
X597940Y195590D01*
X597884Y195597D01*
X597830Y195614D01*
X597744Y195617D01*
X597659Y195628D01*
X597603Y195620D01*
X597546Y195622D01*
X597463Y195600D01*
X597377Y195588D01*
X597326Y195564D01*
X597271Y195550D01*
X597197Y195506D01*
X597118Y195471D01*
X597075Y195434D01*
X597026Y195405D01*
X596967Y195342D01*
X596902Y195286D01*
X596876Y195244D01*
X596832Y195197D01*
X596766Y195068D01*
X596724Y195002D01*
X596530Y194534D01*
X591596Y189600D01*
X585149Y186929D01*
X578171Y186929D01*
X571724Y189600D01*
X566790Y194534D01*
X564119Y200981D01*
X564119Y207959D01*
X566790Y214406D01*
X571724Y219340D01*
X578171Y222011D01*
X585149Y222011D01*
X591596Y219340D01*
X596530Y214406D01*
X596724Y213938D01*
X596768Y213864D01*
X596803Y213786D01*
X596840Y213742D01*
X596869Y213693D01*
X596931Y213634D01*
X596987Y213569D01*
X597034Y213537D01*
X597075Y213498D01*
X597152Y213459D01*
X597223Y213411D01*
X597277Y213394D01*
X597328Y213368D01*
X597412Y213351D01*
X597494Y213326D01*
X597551Y213324D01*
X597607Y213313D01*
X597692Y213320D01*
X597778Y213318D01*
X597833Y213333D01*
X597890Y213337D01*
X597970Y213368D01*
X598053Y213390D01*
X598102Y213419D01*
X598155Y213440D01*
X598224Y213491D01*
X598298Y213535D01*
X598337Y213577D01*
X598382Y213611D01*
X598433Y213680D01*
X598492Y213743D01*
X598518Y213793D01*
X598552Y213839D01*
X598583Y213919D01*
X598622Y213996D01*
X598630Y214044D01*
X598653Y214105D01*
X598664Y214249D01*
X598677Y214327D01*
X598677Y292862D01*
X598669Y292920D01*
X598671Y292978D01*
X598649Y293060D01*
X598637Y293144D01*
X598614Y293197D01*
X598599Y293253D01*
X598556Y293326D01*
X598521Y293403D01*
X598483Y293448D01*
X598454Y293498D01*
X598392Y293556D01*
X598338Y293620D01*
X598289Y293652D01*
X598246Y293692D01*
X598171Y293731D01*
X598101Y293778D01*
X598045Y293795D01*
X597993Y293822D01*
X597925Y293833D01*
X597830Y293863D01*
X597730Y293866D01*
X597662Y293877D01*
X11938Y293877D01*
X11880Y293869D01*
X11822Y293871D01*
X11740Y293849D01*
X11656Y293837D01*
X11603Y293814D01*
X11547Y293799D01*
X11474Y293756D01*
X11397Y293721D01*
X11352Y293683D01*
X11302Y293654D01*
X11244Y293592D01*
X11180Y293538D01*
X11148Y293489D01*
X11108Y293446D01*
X11069Y293371D01*
X11022Y293301D01*
X11005Y293245D01*
X10978Y293193D01*
X10967Y293125D01*
X10937Y293030D01*
X10934Y292930D01*
X10923Y292862D01*
X10923Y212531D01*
X10935Y212446D01*
X10937Y212360D01*
X10955Y212306D01*
X10963Y212249D01*
X10998Y212171D01*
X11024Y212089D01*
X11056Y212042D01*
X11079Y211990D01*
X11134Y211924D01*
X11182Y211853D01*
X11226Y211816D01*
X11262Y211773D01*
X11334Y211725D01*
X11400Y211670D01*
X11452Y211647D01*
X11499Y211615D01*
X11581Y211589D01*
X11660Y211554D01*
X11716Y211547D01*
X11770Y211529D01*
X11856Y211527D01*
X11941Y211515D01*
X11997Y211524D01*
X12054Y211522D01*
X12137Y211544D01*
X12222Y211556D01*
X12274Y211580D01*
X12329Y211594D01*
X12403Y211638D01*
X12482Y211673D01*
X12525Y211710D01*
X12574Y211739D01*
X12633Y211802D01*
X12698Y211858D01*
X12724Y211900D01*
X12768Y211947D01*
X12834Y212076D01*
X12876Y212142D01*
X14340Y215676D01*
X19274Y220610D01*
X25721Y223281D01*
X32699Y223281D01*
X39146Y220610D01*
X44080Y215676D01*
X46751Y209229D01*
X46751Y202251D01*
X44080Y195804D01*
X39146Y190870D01*
X32699Y188199D01*
X25721Y188199D01*
X19274Y190870D01*
X14340Y195804D01*
X12876Y199338D01*
X12832Y199412D01*
X12797Y199490D01*
X12760Y199534D01*
X12731Y199583D01*
X12669Y199642D01*
X12613Y199707D01*
X12566Y199739D01*
X12525Y199778D01*
X12448Y199817D01*
X12377Y199865D01*
X12323Y199882D01*
X12272Y199908D01*
X12188Y199925D01*
X12106Y199951D01*
X12049Y199952D01*
X11993Y199963D01*
X11908Y199956D01*
X11822Y199958D01*
X11767Y199943D01*
X11710Y199939D01*
X11630Y199908D01*
X11547Y199886D01*
X11498Y199857D01*
X11445Y199837D01*
X11376Y199785D01*
X11302Y199741D01*
X11263Y199699D01*
X11218Y199665D01*
X11166Y199596D01*
X11108Y199533D01*
X11082Y199483D01*
X11048Y199437D01*
X11017Y199357D01*
X10978Y199280D01*
X10970Y199232D01*
X10947Y199171D01*
X10936Y199027D01*
X10923Y198949D01*
X10923Y124901D01*
X10935Y124816D01*
X10937Y124730D01*
X10955Y124676D01*
X10963Y124619D01*
X10998Y124541D01*
X11024Y124459D01*
X11056Y124412D01*
X11079Y124360D01*
X11134Y124294D01*
X11182Y124223D01*
X11226Y124186D01*
X11262Y124143D01*
X11334Y124095D01*
X11400Y124040D01*
X11452Y124017D01*
X11499Y123985D01*
X11581Y123959D01*
X11660Y123924D01*
X11716Y123917D01*
X11770Y123899D01*
X11856Y123897D01*
X11941Y123885D01*
X11997Y123894D01*
X12054Y123892D01*
X12137Y123914D01*
X12222Y123926D01*
X12274Y123950D01*
X12329Y123964D01*
X12403Y124008D01*
X12482Y124043D01*
X12525Y124080D01*
X12574Y124109D01*
X12633Y124172D01*
X12698Y124228D01*
X12724Y124270D01*
X12768Y124317D01*
X12834Y124446D01*
X12876Y124512D01*
X14340Y128046D01*
X19274Y132980D01*
X25721Y135651D01*
X32699Y135651D01*
X39146Y132980D01*
X44080Y128046D01*
X46751Y121599D01*
X46751Y114621D01*
X44080Y108174D01*
X39146Y103240D01*
X32699Y100569D01*
X25721Y100569D01*
X19274Y103240D01*
X14340Y108174D01*
X12876Y111708D01*
X12832Y111782D01*
X12797Y111860D01*
X12760Y111904D01*
X12731Y111953D01*
X12669Y112012D01*
X12613Y112077D01*
X12566Y112109D01*
X12525Y112148D01*
X12448Y112187D01*
X12377Y112235D01*
X12323Y112252D01*
X12272Y112278D01*
X12188Y112295D01*
X12106Y112321D01*
X12049Y112322D01*
X11993Y112333D01*
X11908Y112326D01*
X11822Y112328D01*
X11767Y112313D01*
X11710Y112309D01*
X11630Y112278D01*
X11547Y112256D01*
X11498Y112227D01*
X11445Y112207D01*
X11376Y112155D01*
X11302Y112111D01*
X11263Y112069D01*
X11218Y112035D01*
X11166Y111966D01*
X11108Y111903D01*
X11082Y111853D01*
X11048Y111807D01*
X11017Y111727D01*
X10978Y111650D01*
X10970Y111602D01*
X10947Y111541D01*
X10936Y111397D01*
X10923Y111319D01*
X10923Y11938D01*
X10931Y11880D01*
X10929Y11822D01*
X10951Y11740D01*
X10963Y11656D01*
X10986Y11603D01*
X11001Y11547D01*
X11044Y11474D01*
X11079Y11397D01*
X11117Y11352D01*
X11146Y11302D01*
X11208Y11244D01*
X11262Y11180D01*
X11311Y11148D01*
X11354Y11108D01*
X11429Y11069D01*
X11499Y11022D01*
X11555Y11005D01*
X11607Y10978D01*
X11675Y10967D01*
X11770Y10937D01*
X11870Y10934D01*
X11938Y10923D01*
X597662Y10923D01*
X597720Y10931D01*
G37*
D10*
X29210Y205740D03*
X581660Y204470D03*
X26670Y278130D03*
X26670Y26670D03*
X581660Y26670D03*
X580390Y278130D03*
X29210Y118110D03*
X582930Y109220D03*
M02*
